<COLLADA xmlns="http://www.collada.org/2005/11/COLLADASchema" version="1.4.1">
  <asset>
    <created>2026-01-11T12:32:03.455221</created>
    <modified>2026-01-11T12:32:03.455236</modified>
    <up_axis>Y_UP</up_axis>
  </asset>
  <library_effects>
    <effect id="495372255f65464ea7c44c70ca768873" name="495372255f65464ea7c44c70ca768873">
      <profile_COMMON>
        <technique sid="common">
          <phong>
            <ambient>
              <color>0.0 0.0 0.0 1.0</color>
            </ambient>
            <diffuse>
              <color>1.0 1.0 1.0 1.0</color>
            </diffuse>
            <specular>
              <color>1.0 1.0 1.0 1.0</color>
            </specular>
            <shininess>
              <float>24.999998034844715</float>
            </shininess>
            <reflective>
              <color>0.0 0.0 0.0 1.0</color>
            </reflective>
            <reflectivity>
              <float>0.0</float>
            </reflectivity>
            <transparent>
              <color>0.0 0.0 0.0 1.0</color>
            </transparent>
            <transparency>
              <float>1.0</float>
            </transparency>
          </phong>
        </technique>
        <extra>
          <technique profile="GOOGLEEARTH">
            <double_sided>0</double_sided>
          </technique>
        </extra>
      </profile_COMMON>
    </effect>
  </library_effects>
  <library_geometries>
    <geometry id="11b749642a0c43b68a159d2188c3fdf7" name="26e8c96e534a4e79a13da99a85a020f6">
      <mesh>
        <source id="verts-array">
          <float_array count="24" id="verts-array-array">0.6111993 -0.0004669294 -0.3065 -0.6111992 -0.0004669294 -0.3065001 -0.6111993 -0.0004667271 0.2934999 0.6111992 -0.0004667271 0.2935 -0.6111992 -0.0002514232 -0.3035 0.6111993 -0.0002514232 -0.3034999 -0.6111993 -0.000251314 0.2965 0.6111992 -0.000251314 0.2965001</float_array>
          <technique_common>
            <accessor count="8" source="#verts-array-array" stride="3">
              <param type="float" name="X" />
              <param type="float" name="Y" />
              <param type="float" name="Z" />
            </accessor>
          </technique_common>
        </source>
        <source id="normals-array">
          <float_array count="24" id="normals-array-array">-2.981167e-14 -1 3.371748e-07 -2.981167e-14 -1 3.371748e-07 -2.981167e-14 -1 3.371748e-07 -2.981167e-14 -1 3.371748e-07 1.624187e-14 1 -1.819544e-07 1.624187e-14 1 -1.819544e-07 1.624187e-14 1 -1.819544e-07 1.624187e-14 1 -1.819544e-07</float_array>
          <technique_common>
            <accessor count="8" source="#normals-array-array" stride="3">
              <param type="float" name="X" />
              <param type="float" name="Y" />
              <param type="float" name="Z" />
            </accessor>
          </technique_common>
        </source>
        <source id="texcoords-array">
          <float_array count="16" id="texcoords-array-array">0.7507976 0.2494644 0.7507976 0.00140357 0.8742414 0.001403511 0.8742414 0.2494643 0.7507976 0.00140357 0.7507976 0.2494644 0.8742414 0.001403511 0.8742414 0.2494643</float_array>
          <technique_common>
            <accessor count="8" source="#texcoords-array-array" stride="2">
              <param type="float" name="S" />
              <param type="float" name="T" />
            </accessor>
          </technique_common>
        </source>
        <vertices id="verts-array-vertices">
          <input semantic="POSITION" source="#verts-array" />
        </vertices>
        <triangles count="4" material="material0">
          <input offset="0" semantic="VERTEX" source="#verts-array-vertices" />
          <input offset="1" semantic="NORMAL" source="#normals-array" />
          <input offset="2" semantic="TEXCOORD" source="#texcoords-array" />
          <p>2 2 2 1 1 1 0 0 0 3 3 3 2 2 2 0 0 0 6 6 6 5 5 5 4 4 4 5 5 5 6 6 6 7 7 7</p>
        </triangles>
      </mesh>
    </geometry>
  </library_geometries>
  <library_materials>
    <material id="92c345423f97412c827dd8d2699f0dd7" name="pbrmaterial">
      <instance_effect url="#495372255f65464ea7c44c70ca768873" />
    </material>
  </library_materials>
  <library_visual_scenes>
    <visual_scene id="scene">
      <node id="node0" name="node0">
        <instance_geometry url="#11b749642a0c43b68a159d2188c3fdf7">
          <bind_material>
            <technique_common>
              <instance_material symbol="material0" target="#92c345423f97412c827dd8d2699f0dd7" />
            </technique_common>
          </bind_material>
        </instance_geometry>
      </node>
    </visual_scene>
  </library_visual_scenes>
  <scene>
    <instance_visual_scene url="#scene" />
  </scene>
</COLLADA>
